<?xml version="1.0" standalone="no"?>
<!DOCTYPE svg PUBLIC "-//W3C//DTD SVG 20010904//EN"
 "http://www.w3.org/TR/2001/REC-SVG-20010904/DTD/svg10.dtd">
<svg version="1.0" xmlns="http://www.w3.org/2000/svg"
 width="500.000000pt" height="500.000000pt" viewBox="0 0 500.000000 500.000000"
 preserveAspectRatio="xMidYMid meet">

<g transform="translate(0.000000,500.000000) scale(0.100000,-0.100000)"
fill="#000000" stroke="none">
<path d="M2245 4490 c-1264 -5 -1353 -6 -1395 -23 -137 -54 -234 -159 -281
-302 -10 -30 -14 -176 -19 -604 l-5 -565 -68 -17 c-173 -43 -305 -186 -338
-364 -7 -38 -9 -149 -7 -300 5 -266 15 -318 77 -410 17 -25 31 -48 31 -51 0
-2 -44 -4 -98 -4 -90 0 -100 -2 -120 -23 -21 -22 -22 -32 -22 -209 0 -251 -18
-232 224 -236 l187 -3 -2 -188 c-2 -178 -1 -191 21 -235 66 -137 292 -153 377
-27 36 54 43 96 43 279 l0 172 1649 0 1650 0 3 -203 c3 -202 3 -204 30 -244
75 -113 280 -119 361 -11 41 56 47 91 47 279 l0 178 180 3 c241 4 225 -13 225
239 0 237 5 229 -146 229 l-99 0 34 52 c66 106 69 124 74 426 3 253 2 279 -17
340 -50 166 -196 299 -346 317 l-55 7 0 539 c0 353 -4 556 -11 591 -40 191
-205 343 -399 368 -41 5 -156 8 -255 7 -99 -1 -787 -4 -1530 -7z m1615 -153
c186 -2 197 -3 250 -28 69 -33 115 -79 149 -149 l26 -55 3 -552 3 -553 -50 0
-50 0 -3 313 -3 312 -29 59 c-35 72 -86 125 -152 157 l-49 24 -645 0 c-638 0
-646 0 -691 -21 -26 -12 -64 -38 -86 -58 l-40 -35 -29 30 c-16 17 -51 43 -79
57 l-50 27 -650 0 -650 0 -45 -24 c-70 -37 -106 -68 -139 -119 -54 -85 -61
-136 -61 -444 l0 -278 -45 0 -45 0 2 558 c3 554 3 557 25 602 53 108 149 171
273 180 70 5 2429 3 2860 -3z m-1523 -649 c75 -49 78 -64 81 -395 l3 -293
-741 0 -740 0 0 268 c0 147 5 287 11 311 13 60 44 100 93 122 39 18 73 19 647
16 l605 -2 41 -27z m1601 13 c45 -23 77 -56 91 -94 7 -18 11 -137 11 -318 l0
-289 -735 0 -735 0 0 289 c0 180 4 300 11 318 14 37 57 82 94 99 24 11 151 13
628 14 568 0 600 -1 635 -19z m590 -880 c69 -31 144 -114 168 -183 15 -45 18
-88 17 -293 0 -223 -2 -244 -22 -297 -27 -69 -88 -135 -156 -168 l-50 -25
-1985 0 -1985 0 -57 28 c-70 34 -131 101 -155 170 -15 45 -18 87 -18 297 0
210 3 252 18 297 35 99 126 174 234 193 27 4 923 7 1993 6 l1945 -1 53 -24z
m320 -1203 l-3 -83 -2295 -3 c-1262 -2 -2319 0 -2347 3 l-53 6 0 80 0 79 2350
0 2351 0 -3 -82z m-4150 -404 c2 -160 1 -172 -18 -197 -25 -32 -67 -36 -100
-9 -25 21 -27 37 -22 260 l2 123 68 -3 67 -3 3 -171z m3740 11 c1 -88 0 -170
-3 -182 -12 -51 -68 -69 -113 -37 -21 15 -22 20 -22 200 l0 185 68 -3 67 -3 3
-160z"/>
</g>
</svg>
